<?xml version="1.0" encoding="UTF-8"?>
<!DOCTYPE svg PUBLIC "-//W3C//DTD SVG 1.1//EN" "http://www.w3.org/Graphics/SVG/1.1/DTD/svg11.dtd">
<!-- Creator: CorelDRAW X5 -->
<svg xmlns="http://www.w3.org/2000/svg" xml:space="preserve" width="50mm" height="50mm" style="shape-rendering:geometricPrecision; text-rendering:geometricPrecision; image-rendering:optimizeQuality; fill-rule:evenodd; clip-rule:evenodd"
viewBox="0 0 5000 5000"
 xmlns:xlink="http://www.w3.org/1999/xlink">
 <defs>
  <style type="text/css">
   <![CDATA[
    .fil1 {fill:#00A2E9}
    .fil2 {fill:#FFF000}
    .fil0 {fill:#F9BE12}
   ]]>
  </style>
 </defs>
 <g id="Layer_x0020_1">
  <metadata id="CorelCorpID_0Corel-Layer"/>
  <path class="fil0" d="M2817 525c208,33 406,99 588,191l198 -272 256 186 256 186 -198 273 -1 0c146,146 269,315 364,500l320 -104 98 301 98 301 -320 104c16,101 24,204 24,309 0,105 -8,208 -24,309l320 104 -98 301 -98 301 -320 -104c-95,185 -218,354 -364,500l0 0 198 273 -256 186 -256 186 -198 -272c-182,92 -379,158 -588,191l0 337 -317 0 -317 0 0 -337c-208,-33 -406,-99 -588,-191l-198 272 -256 -186 -256 -186 198 -273 1 0c-146,-146 -269,-315 -364,-500l-320 104 -98 -301 -98 -301 320 -104c-16,-101 -24,-204 -24,-309 0,-105 8,-208 24,-309l-320 -104 98 -301 98 -301 320 104c95,-185 218,-354 364,-500l-1 0 -198 -273 256 -186 256 -186 198 272c182,-92 379,-158 588,-191l0 0 0 -337 317 0 317 0 0 337z"/>
  <circle class="fil1" cx="2500" cy="2500" r="1671"/>
  <path class="fil2" d="M2250 3426c132,-118 115,-271 62,-462 -77,-276 22,-309 48,-599 47,-523 -126,-436 -150,-849 -189,240 12,563 -63,746 -45,-122 -25,-288 -132,-410 37,204 -115,337 5,591 132,281 276,575 194,817 -68,-191 -207,-358 -416,-329 -285,39 -351,252 -492,369 118,142 91,354 333,447 222,85 478,21 569,-233 30,63 31,171 66,244 35,73 94,109 116,39 -102,-103 -77,-244 -140,-371z"/>
  <path class="fil2" d="M2750 3426c-132,-118 -115,-271 -62,-462 77,-276 -22,-309 -48,-599 -47,-523 126,-436 150,-849 189,240 -12,563 63,746 45,-122 25,-288 132,-410 -37,204 115,337 -5,591 -132,281 -276,575 -194,817 68,-191 207,-358 416,-329 285,39 351,252 492,369 -118,142 -91,354 -333,447 -222,85 -478,21 -569,-233 -30,63 -31,171 -66,244 -35,73 -94,109 -116,39 102,-103 77,-244 140,-371z"/>
  <polygon class="fil2" points="2500,1063 2559,1246 2751,1245 2595,1358 2655,1540 2500,1427 2345,1540 2405,1358 2249,1245 2441,1246 "/>
 </g>
</svg>
